<?xml version="1.0" encoding="UTF-8"?>
<!DOCTYPE svg PUBLIC "-//W3C//DTD SVG 1.1//EN" "http://www.w3.org/Graphics/SVG/1.1/DTD/svg11.dtd">
<!-- Creator: CorelDRAW -->
<svg xmlns="http://www.w3.org/2000/svg" xml:space="preserve" width="100%" height="100%" version="1.1" shape-rendering="geometricPrecision" text-rendering="geometricPrecision" image-rendering="optimizeQuality" fill-rule="evenodd" clip-rule="evenodd"
viewBox="0 0 48181.01 15731.65"
 xmlns:xlink="http://www.w3.org/1999/xlink"
 xmlns:xodm="http://www.corel.com/coreldraw/odm/2003">
 <g id="Layer_x0020_1">
  <metadata id="CorelCorpID_0Corel-Layer"/>
  <g id="_48231148704">
   <path fill="#F2F2F2" fill-rule="nonzero" d="M-0 8947.41l0 -6804.79c0,-487.75 178.44,-904.13 523.44,-1249.13 345,-345 749.48,-511.55 1237.23,-511.55l5032.22 0c487.75,0 904.13,166.55 1249.13,511.55 344.99,345 523.44,761.38 523.44,1249.13l0 6804.79 -1867.75 0 0 -2759.98 -4853.76 0 0 2759.98 -1843.95 0zm1843.95 -4615.83l4853.76 0 0 -1701.2c0,-261.72 0,-392.58 0,-392.58 0,0 -130.86,0 -392.58,0l-4068.6 0c-261.72,0 -392.58,0 -392.58,0 0,0 0,130.86 0,392.58l0 1701.2z"/>
   <path id="_1" fill="#F2F2F2" fill-rule="nonzero" d="M9897.87 8947.41l0 -6899.96 8303.74 0c475.86,0 880.34,166.55 1225.34,511.55 333.1,345 499.65,749.48 499.65,1213.44l0 5174.97 -1808.26 0 0 -4687.21c0,-261.73 0,-392.59 0,-392.59 0,0 -130.86,0 -392.59,0l-1498.95 0c-261.73,0 -392.59,0 -392.59,0 0,0 0,130.86 0,392.59l0 4687.21 -1832.05 0 0 -4687.21c0,-261.73 0,-392.59 0,-392.59 0,0 -130.87,0 -392.59,0l-1498.95 0c-261.73,0 -392.59,0 -392.59,0 0,0 0,130.86 0,392.59l0 4687.21 -1820.16 0z"/>
   <path id="_2" fill="#F2F2F2" fill-rule="nonzero" d="M21508.84 8947.41l0 -5174.97c0,-463.96 166.55,-868.44 511.55,-1213.44 344.99,-345 749.47,-511.55 1225.33,-511.55l3806.88 0 0 1820.16 -3331.02 0c-261.72,0 -392.58,0 -392.58,0 0,0 0,130.86 0,392.59l0 4687.21 -1820.16 0z"/>
   <path fill="#F3F3F2" fill-rule="nonzero" d="M45539.99 8946.15c-475.86,0 -880.34,-166.55 -1225.34,-511.55 -345,-345 -511.55,-749.48 -511.55,-1213.44l0 -7221.16 1820.16 0 0 2046.19 2557.75 0 0 1820.16 -2557.75 0 0 2867.05c0,261.73 0,392.59 0,392.59 0,0 130.87,0 392.59,0l2165.16 0 0 1820.16 -2641.02 0z"/>
   <path fill="#034F46" fill-rule="nonzero" d="M29538.86 8945.5c-467.93,0 -872.42,-170.53 -1213.44,-511.55 -341.05,-341.04 -511.57,-745.51 -511.57,-1213.44l0 -3449.98c0,-467.93 170.52,-872.42 511.57,-1213.44 341.02,-341.05 745.51,-511.55 1213.44,-511.55l11481.14 0c475.87,0 882.31,170.5 1219.4,511.55 337.07,341.02 505.59,745.51 505.59,1213.44l0 3449.98c0,467.93 -168.52,872.4 -505.59,1213.44 -337.09,341.02 -743.53,511.55 -1219.4,511.55l-11481.14 0zm487.74 -1820.16l10505.64 0c261.73,0 392.59,0 392.59,0 0,0 0,-130.86 0,-392.59l0 -2474.46c0,-261.73 0,-392.59 0,-392.59 0,0 -130.86,0 -392.59,0l-10505.64 0c-261.71,0 10915.66,0 10915.66,0 0,0 0,130.86 0,392.59l0 2474.46c0,261.73 0,392.59 0,392.59 0,0 -11177.37,0 -10915.66,0z"/>
   <path fill="#F16875" fill-rule="nonzero" d="M1582.16 15731.65c-196.29,0 -368.79,-71.38 -505.6,-208.19 -136.81,-136.81 -208.19,-309.31 -208.19,-505.6l0 -2855.15c0,-196.3 71.38,-368.8 208.19,-505.6 136.81,-136.81 309.31,-208.19 505.6,-208.19l2855.16 0c196.29,0 368.79,71.38 505.6,208.19 136.81,136.8 208.19,309.3 208.19,505.6l0 2855.15c0,196.29 -71.38,368.79 -208.19,505.6 -136.81,136.81 -309.31,208.19 -505.6,208.19l-2855.16 0zm0 -481.81l2855.16 0c65.43,0 118.96,-23.79 166.55,-71.38 41.64,-41.63 65.43,-95.17 65.43,-160.6l0 -2855.15c0,-65.43 -23.79,-118.97 -65.43,-166.55 -47.59,-41.64 -101.12,-65.44 -166.55,-65.44l-2855.16 0c-65.43,0 -118.96,23.8 -160.6,65.44 -47.58,47.58 -71.38,101.12 -71.38,166.55l0 2855.15c0,65.43 23.8,118.97 71.38,160.6 41.64,47.59 95.17,71.38 160.6,71.38z"/>
   <path id="_1_0" fill="#F16875" fill-rule="nonzero" d="M7417.38 15731.65l0 -4276.78 3568.95 0c196.29,0 368.79,71.37 505.6,208.18 136.81,142.76 208.19,309.31 208.19,505.6l0 1255.08c0,196.29 -71.38,362.85 -208.19,499.65 -136.81,142.76 -309.31,214.14 -505.6,214.14l-654.31 0 1344.3 1588.18 0 5.95 -636.46 0 -1338.35 -1594.13 -1802.32 -5.95 0 1600.08 -481.81 0zm713.79 -2081.88l2855.16 0c65.43,0 118.96,-23.8 160.6,-65.43 41.64,-41.64 65.43,-95.18 65.43,-160.61l0 -1255.08c0,-65.43 -23.79,-118.96 -65.43,-166.55 -41.64,-41.63 -95.17,-65.43 -160.6,-65.43l-2855.16 0c-65.43,0 -118.96,23.8 -160.6,65.43 -47.59,47.59 -71.38,101.12 -71.38,166.55l0 1255.08c0,65.43 23.79,118.97 71.38,160.61 41.64,41.63 95.17,65.43 160.6,65.43z"/>
   <path id="_2_1" fill="#F16875" fill-rule="nonzero" d="M14662.34 15731.65c-196.29,0 -368.79,-71.38 -505.6,-208.19 -136.81,-136.81 -208.19,-309.31 -208.19,-505.6l0 -2855.15c0,-196.3 71.38,-368.8 208.19,-505.6 136.81,-136.81 309.31,-208.19 505.6,-208.19l2855.16 0c196.29,0 368.79,71.38 505.6,208.19 136.81,136.8 208.18,309.3 208.18,505.6l0 172.49 -481.8 0 0 -172.49c0,-65.43 -23.8,-118.97 -65.43,-166.55 -47.59,-41.64 -101.12,-65.44 -166.55,-65.44l-2855.16 0c-65.43,0 -118.96,23.8 -160.6,65.44 -47.59,47.58 -71.38,101.12 -71.38,166.55l0 2855.15c0,65.43 23.79,118.97 71.38,160.6 41.64,47.59 95.17,71.38 160.6,71.38l2855.16 0c65.43,0 118.96,-23.79 166.55,-71.38 41.63,-41.63 65.43,-95.17 65.43,-160.6l0 -1058.79 -1058.79 0 0 -487.75 1540.59 0 0 1546.54c0,196.29 -71.37,368.79 -208.18,505.6 -136.81,136.81 -309.31,208.19 -505.6,208.19l-2855.16 0z"/>
   <path id="_3" fill="#F16875" fill-rule="nonzero" d="M20515.41 15731.65l0 -3568.94c0,-196.3 71.38,-368.8 208.19,-505.6 136.81,-136.81 309.3,-208.19 505.6,-208.19l2855.15 0c196.29,0 368.79,71.38 505.6,208.19 136.81,136.8 208.19,309.3 208.19,505.6l0 3568.94 -481.81 0 0 -1564.39 -3319.11 0 0 1564.39 -481.81 0zm481.81 -2046.19l3319.11 0 0 -1522.75c0,-65.43 -23.79,-118.97 -65.43,-166.55 -47.58,-41.64 -101.12,-65.44 -166.55,-65.44l-2855.15 0c-65.43,0 -118.97,23.8 -160.61,65.44 -47.58,47.58 -71.37,101.12 -71.37,166.55l0 1522.75z"/>
   <polygon id="_4" fill="#F16875" fill-rule="nonzero" points="27094.16,15731.65 27094.16,11448.92 27754.42,11448.92 30895.09,15184.41 30895.09,11448.92 31376.89,11448.92 31376.89,15731.65 30716.64,15731.65 27575.97,11996.16 27575.97,15731.65 "/>
   <polygon id="_5" fill="#F16875" fill-rule="nonzero" points="33637.23,15731.65 33637.23,11448.92 34124.98,11448.92 34124.98,15731.65 "/>
   <path id="_6" fill="#F16875" fill-rule="nonzero" d="M37265.65 15731.65c-196.29,0 -368.79,-71.38 -505.6,-208.19 -136.81,-136.81 -208.19,-309.31 -208.19,-505.6l0 -2855.15c0,-196.3 71.38,-368.8 208.19,-505.6 136.81,-136.81 309.31,-208.19 505.6,-208.19l3557.05 0 0 481.8 -3557.05 0c-65.43,0 -118.96,23.8 -160.6,65.44 -47.59,47.58 -71.38,101.12 -71.38,166.55l0 2855.15c0,65.43 23.79,118.97 71.38,160.6 41.64,47.59 95.17,71.38 160.6,71.38l3557.05 0 0 481.81 -3557.05 0z"/>
   <path id="_7" fill="#F16875" fill-rule="nonzero" d="M43743.28 15731.65c-196.29,0 -368.79,-71.38 -505.6,-208.19 -136.81,-136.81 -208.19,-309.31 -208.19,-505.6l0 -166.55 481.81 0 0 166.55c0,65.43 23.79,118.97 71.38,160.6 41.63,47.59 95.17,71.38 160.6,71.38l2855.15 0c65.44,0 118.97,-23.79 166.56,-71.38 41.63,-41.63 65.43,-95.17 65.43,-160.6l0 -957.67c0,-65.43 -23.8,-118.96 -65.43,-160.6 -47.59,-41.64 -101.12,-65.43 -166.56,-65.43l-2855.15 0c-196.29,0 -368.79,-71.38 -505.6,-214.14 -136.81,-136.8 -208.19,-303.36 -208.19,-499.65l0 -957.66c0,-196.3 71.38,-368.8 208.19,-505.6 136.81,-136.81 309.31,-208.19 505.6,-208.19l2855.15 0c196.3,0 368.8,71.38 505.6,208.19 136.81,136.8 208.19,309.3 208.19,505.6l0 166.55 -481.8 0 0 -166.55c0,-65.43 -23.8,-118.97 -65.43,-166.55 -47.59,-41.64 -101.12,-65.44 -166.56,-65.44l-2855.15 0c-65.43,0 -118.97,23.8 -160.6,65.44 -47.59,47.58 -71.38,101.12 -71.38,166.55l0 957.66c0,65.43 23.79,118.97 71.38,160.61 41.63,41.63 95.17,65.43 160.6,65.43l2855.15 0c196.3,0 368.8,71.37 505.6,208.18 136.81,142.76 208.19,309.31 208.19,505.6l0 957.67c0,196.29 -71.38,368.79 -208.19,505.6 -136.8,136.81 -309.3,208.19 -505.6,208.19l-2855.15 0z"/>
  </g>
 </g>
</svg>
